<svg width="24" height="21" viewBox="0 0 24 21" fill="none" xmlns="http://www.w3.org/2000/svg">
<path d="M1.44253 12.3933C1.54074 12.4092 1.64012 12.4166 1.73955 12.4153H18.6711L18.3019 12.587C17.941 12.7578 17.6127 12.9903 17.3317 13.2739L12.5836 18.0219C11.9583 18.6188 11.8532 19.5791 12.3347 20.2972C12.8949 21.0623 13.9694 21.2285 14.7346 20.6682C14.7965 20.6229 14.8552 20.5735 14.9104 20.5204L23.4964 11.9345C24.1674 11.2642 24.1679 10.177 23.4977 9.50599C23.4973 9.50556 23.4968 9.50507 23.4964 9.50464L14.9104 0.918709C14.2389 0.24906 13.1517 0.250561 12.482 0.922089C12.4293 0.974945 12.38 1.03118 12.3347 1.09043C11.8532 1.80848 11.9583 2.76876 12.5836 3.3657L17.3231 8.12231C17.575 8.37452 17.8647 8.586 18.1817 8.74908L18.6968 8.9809H1.83405C0.956837 8.94833 0.187216 9.5611 0.022419 10.4233C-0.129391 11.3595 0.506399 12.2414 1.44253 12.3933Z" fill="white"/>
</svg>
