<svg width="24" height="24" viewBox="0 0 24 24" fill="none" xmlns="http://www.w3.org/2000/svg">
<path d="M16.9648 10.1205C17.7886 9.05803 18.2798 7.72528 18.2798 6.27975C18.2798 2.81709 15.4627 0 12.0001 0C8.53743 0 5.72033 2.81709 5.72033 6.27975C5.72033 7.72523 6.21154 9.05803 7.03541 10.1205C5.2873 11.5577 4.17041 13.736 4.17041 16.1704C4.17046 20.4876 7.6828 24 12.0001 24C16.3174 24 19.8297 20.4876 19.8297 16.1704C19.8297 13.736 18.7129 11.5576 16.9648 10.1205ZM9.93908 6.27975C9.93908 5.14331 10.8636 4.21875 12.0001 4.21875C13.1365 4.21875 14.0611 5.14331 14.0611 6.27975C14.0611 7.41619 13.1365 8.34075 12.0001 8.34075C10.8636 8.34075 9.93908 7.41619 9.93908 6.27975ZM12.0001 19.7812C10.009 19.7812 8.38921 18.1614 8.38921 16.1704C8.38921 14.1794 10.0091 12.5595 12.0001 12.5595C13.9911 12.5595 15.611 14.1794 15.611 16.1704C15.611 18.1614 13.9911 19.7812 12.0001 19.7812Z" fill="#D8EEDA"/>
<path d="M16.9647 10.1205C17.7885 9.05803 18.2797 7.72528 18.2797 6.27975C18.2797 2.81709 15.4627 0 12 0V4.21875C13.1364 4.21875 14.061 5.14331 14.061 6.27975C14.061 7.41619 13.1364 8.34075 12 8.34075V12.5595C13.9911 12.5595 15.6109 14.1794 15.6109 16.1704C15.6109 18.1614 13.9911 19.7812 12 19.7812V24C16.3173 24 19.8296 20.4876 19.8296 16.1704C19.8296 13.736 18.7128 11.5576 16.9647 10.1205Z" fill="white"/>
</svg>
