<svg width="24" height="24" viewBox="0 0 24 24" fill="none" xmlns="http://www.w3.org/2000/svg">
<g clip-path="url(#clip0_1406_3365)">
<path d="M20.4465 7.95112C20.1884 7.72917 19.929 7.51715 19.6689 7.31409L16.6361 10.3469C16.8209 10.8638 16.9219 11.4203 16.9219 11.9999C16.9219 14.7138 14.7139 16.9218 12 16.9218C11.4204 16.9218 10.8639 16.8208 10.347 16.6359L8.07089 18.9121C9.40008 19.4573 10.7184 19.7343 12 19.7343C13.5308 19.7343 15.114 19.3407 16.7055 18.5645C17.9553 17.9549 19.214 17.1084 20.4465 16.0487C22.5304 14.2568 23.8141 12.4851 23.8677 12.4105C24.0442 12.1652 24.0442 11.8346 23.8677 11.5893C23.814 11.5147 22.5304 9.74296 20.4465 7.95112Z" fill="#ABABAB"/>
<path d="M12 15.5156C13.9385 15.5156 15.5156 13.9385 15.5156 12C15.5156 11.8313 15.503 11.6655 15.4799 11.5032L11.5032 15.4798C11.6657 15.5029 11.8314 15.5156 12 15.5156Z" fill="#ABABAB"/>
<path d="M23.7941 0.20591C23.5195 -0.0686367 23.0743 -0.0686367 22.7997 0.20591L17.2756 5.73003C17.0855 5.62653 16.8954 5.52796 16.7055 5.43538C15.114 4.65913 13.5308 4.26557 12 4.26557C10.4692 4.26557 8.886 4.65913 7.2945 5.43533C6.04472 6.04494 4.78604 6.89141 3.55346 7.95116C1.46968 9.743 0.185958 11.5148 0.132333 11.5894C-0.0441516 11.8346 -0.0441516 12.1652 0.132333 12.4105C0.185958 12.4851 1.46963 14.2569 3.55346 16.0487C4.19204 16.5978 4.83765 17.089 5.48536 17.5202L0.205973 22.7997C-0.0686203 23.0742 -0.0686203 23.5194 0.205973 23.794C0.34327 23.9313 0.523177 23.9999 0.70313 23.9999C0.883083 23.9999 1.06304 23.9313 1.20029 23.794L23.794 1.20022C24.0687 0.925676 24.0687 0.480457 23.7941 0.20591ZM7.07813 11.9999C7.07813 9.28602 9.28608 7.07807 12 7.07807C13.104 7.07807 14.1241 7.44341 14.9461 8.05954L13.9373 9.06828C13.3815 8.69966 12.7156 8.48432 12 8.48432C10.0615 8.48432 8.48438 10.0614 8.48438 11.9999C8.48438 12.7154 8.69972 13.3813 9.06835 13.9373L8.0596 14.946C7.44347 14.1241 7.07813 13.1039 7.07813 11.9999Z" fill="#ABABAB"/>
</g>
<defs>
<clipPath id="clip0_1406_3365">
<rect width="24" height="24" fill="white"/>
</clipPath>
</defs>
</svg>
