<svg width="24" height="24" viewBox="0 0 24 24" fill="none" xmlns="http://www.w3.org/2000/svg">
<g clip-path="url(#clip0_1438_2773)">
<path d="M23.2966 1.94816H12.7032V0.703104C12.7032 0.314803 12.3884 0 12.0001 0C11.6118 0 11.297 0.314803 11.297 0.703104V1.94816H0.703532C0.31523 1.94816 0.000427246 2.26296 0.000427246 2.65127V15.8192H23.9997V2.65127C23.9997 2.26296 23.6849 1.94816 23.2966 1.94816Z" fill="#18532C"/>
<path d="M0.000398923 19.5271C0.000398923 19.9154 0.315202 20.2302 0.703503 20.2302H7.72016L6.15261 22.9453C5.95846 23.2815 6.07367 23.7116 6.40995 23.9057C6.52066 23.9696 6.64155 24 6.76084 24C7.00383 24 7.24022 23.8739 7.37039 23.6484L9.34386 20.2302H11.2969V23.2968C11.2969 23.6851 11.6117 23.9999 12 23.9999C12.3883 23.9999 12.7031 23.6851 12.7031 23.2968V20.2302H14.6561L16.6296 23.6484C16.7598 23.8739 16.9962 24 17.2392 24C17.3584 24 17.4793 23.9696 17.5901 23.9057C17.9263 23.7116 18.0415 23.2815 17.8474 22.9453L16.2798 20.2302H23.2965C23.6848 20.2302 23.9996 19.9154 23.9996 19.5271V17.2255H0.000305176V19.5271H0.000398923Z" fill="#18532C"/>
</g>
<defs>
<clipPath id="clip0_1438_2773">
<rect width="24" height="24" fill="white"/>
</clipPath>
</defs>
</svg>
