<svg width="24" height="24" viewBox="0 0 24 24" fill="none" xmlns="http://www.w3.org/2000/svg">
<g clip-path="url(#clip0_1438_2719)">
<path d="M23.2964 1.94816H12.703V0.703104C12.703 0.314803 12.3882 0 11.9999 0C11.6116 0 11.2968 0.314803 11.2968 0.703104V1.94816H0.703349C0.315047 1.94816 0.000244141 2.26296 0.000244141 2.65127V15.8192H23.9995V2.65127C23.9995 2.26296 23.6847 1.94816 23.2964 1.94816Z" fill="#ABABAB"/>
<path d="M0.000337888 19.5271C0.000337888 19.9154 0.315141 20.2302 0.703442 20.2302H7.7201L6.15255 22.9453C5.9584 23.2815 6.07361 23.7116 6.40988 23.9057C6.5206 23.9696 6.64149 24 6.76078 24C7.00377 24 7.24016 23.8739 7.37033 23.6484L9.3438 20.2302H11.2968V23.2968C11.2968 23.6851 11.6116 23.9999 11.9999 23.9999C12.3882 23.9999 12.703 23.6851 12.703 23.2968V20.2302H14.6561L16.6296 23.6484C16.7598 23.8739 16.9961 24 17.2391 24C17.3583 24 17.4793 23.9696 17.59 23.9057C17.9263 23.7116 18.0415 23.2815 17.8473 22.9453L16.2798 20.2302H23.2964C23.6847 20.2302 23.9995 19.9154 23.9995 19.5271V17.2255H0.000244141V19.5271H0.000337888Z" fill="#ABABAB"/>
</g>
<defs>
<clipPath id="clip0_1438_2719">
<rect width="24" height="24" fill="white"/>
</clipPath>
</defs>
</svg>
