<svg width="18" height="24" viewBox="0 0 18 24" fill="none" xmlns="http://www.w3.org/2000/svg">
<path d="M1.72728 24H16.2727C16.8752 24 17.3636 23.5116 17.3636 22.9091V10.5455C17.3636 9.94298 16.8752 9.45455 16.2727 9.45455H15.1818V6.18182C15.1818 2.77316 12.4087 0 9 0C5.59135 0 2.81819 2.77316 2.81819 6.18182V9.45455H1.72728C1.1248 9.45455 0.636368 9.94298 0.636368 10.5455V22.9091C0.636368 23.5116 1.1248 24 1.72728 24ZM10.0909 17.0899V18.5455C10.0909 19.1479 9.60248 19.6364 9 19.6364C8.39753 19.6364 7.90909 19.1479 7.90909 18.5455V17.0899C7.46779 16.7579 7.18182 16.23 7.18182 15.6364C7.18182 14.6338 7.99746 13.8182 9 13.8182C10.0025 13.8182 10.8182 14.6338 10.8182 15.6364C10.8182 16.23 10.5322 16.7579 10.0909 17.0899ZM5 6.18182C5 3.97622 6.7944 2.18182 9 2.18182C11.2056 2.18182 13 3.97622 13 6.18182V9.45455H5V6.18182Z" fill="#18532C"/>
</svg>
