<svg width="125" height="125" viewBox="0 0 125 125" fill="none" xmlns="http://www.w3.org/2000/svg">

<defs>
<linearGradient id="paint0_linear_479_13308" x1="37.9355" y1="90.3026" x2="8.5871" y2="90.0632" gradientUnits="userSpaceOnUse">
<stop offset="0.38" stop-color="white"/>
<stop offset="0.55" stop-color="#FDFDFD"/>
<stop offset="0.64" stop-color="#F5F8F6"/>
<stop offset="0.71" stop-color="#E8EEEA"/>
<stop offset="0.77" stop-color="#D5E0D9"/>
<stop offset="0.82" stop-color="#BDCEC2"/>
<stop offset="0.87" stop-color="#9FB7A7"/>
<stop offset="0.91" stop-color="#7B9D86"/>
<stop offset="0.95" stop-color="#517E61"/>
<stop offset="0.99" stop-color="#245C37"/>
<stop offset="1" stop-color="#18532C"/>
</linearGradient>
<linearGradient id="paint1_linear_479_13308" x1="80.266" y1="64.1822" x2="80.9009" y2="137.832" gradientUnits="userSpaceOnUse">
<stop offset="0.39" stop-color="#19522B"/>
<stop offset="0.47" stop-color="#2B603C" stop-opacity="0.97"/>
<stop offset="0.61" stop-color="#5C8569" stop-opacity="0.88"/>
<stop offset="0.78" stop-color="#ACC0B2" stop-opacity="0.74"/>
<stop offset="0.95" stop-color="white" stop-opacity="0.6"/>
</linearGradient>
<linearGradient id="paint2_linear_479_13308" x1="67.8307" y1="94.1191" x2="90.117" y2="90.3203" gradientUnits="userSpaceOnUse">
<stop offset="0.09" stop-color="#286934" stop-opacity="0.3"/>
<stop offset="0.81" stop-color="white" stop-opacity="0.3"/>
</linearGradient>
<linearGradient id="paint3_linear_479_13308" x1="83.3378" y1="87.2806" x2="95.7945" y2="87.2806" gradientUnits="userSpaceOnUse">
<stop offset="0.09" stop-color="#286934" stop-opacity="0.3"/>
<stop offset="0.81" stop-color="white" stop-opacity="0.3"/>
</linearGradient>
<clipPath id="clip0_479_13308">
<rect width="111.263" height="124.764" fill="white" transform="translate(6.98138)"/>
</clipPath>
</defs>
    <g clip-path="url(#clip0_479_13308)">
    <path d="M94.4914 19.4115L94.5512 19.4448L83.0186 22.9754L91.9847 6.22671L103.418 2.72937L94.4914 19.4115Z" fill="#1D5128"/>
    <path d="M12.9189 44.4248L113.989 13.5006L110.07 0.691467L8.99601 31.619L12.9189 44.4248Z" fill="#15301A"/>
    <path d="M112.028 7.09106L113.989 13.5006L107.543 15.472L112.028 7.09106Z" fill="#15301A"/>
    <path d="M10.9009 43.7334L111.975 12.8059L108.055 0L6.98138 30.9275L10.9009 43.7334Z" fill="white"/>
    <path d="M92.4767 18.7201L92.5366 18.7533L81.004 22.2839L89.9701 5.53521L101.403 2.03455L92.4767 18.7201Z" fill="#15532C"/>
    <path d="M56.486 29.7872L65.4388 13.0518L65.4189 13.0485L76.885 9.5412L67.9289 26.2666L67.9521 26.2799L56.486 29.7872Z" fill="#18532A"/>
    <path d="M16.3464 28.1483L16.24 28.0918L27.8391 24.5446L18.8763 41.2932L10.9009 43.7334L9.84375 40.2959L16.3464 28.1483Z" fill="#18532C"/>
    <path d="M110.013 6.3963L111.975 12.8059L105.529 14.7806L110.013 6.3963Z" fill="#18532C"/>
    <path d="M40.891 20.6017L40.8311 20.5685L52.3604 17.0412L43.3976 33.7899L31.9648 37.2872L40.891 20.6017Z" fill="#18532C"/>
    <path d="M110.07 0.691489L108.055 0L108.421 1.19681L110.07 0.691489Z" fill="#1D5128"/>
    <path d="M10.9009 43.7333L12.9189 44.4248L12.5499 43.228L10.9009 43.7333Z" fill="#15301A"/>
    <path d="M26.3331 124.511C20.5751 124.511 15.9109 120.612 15.9109 115.798V115.994C15.9105 117.146 16.1369 118.286 16.5773 119.35C17.0176 120.414 17.6633 121.381 18.4774 122.195C19.2915 123.009 20.2581 123.656 21.3219 124.096C22.3857 124.537 23.526 124.764 24.6775 124.764H48.5372V124.511H26.3331Z" fill="#15301A"/>
    <path d="M96.2134 56.1037H54.6975V124.511H48.5372V124.764H107.713C110.038 124.763 112.268 123.839 113.912 122.194C115.556 120.55 116.479 118.319 116.479 115.994V56.1037H96.2001H96.2134Z" fill="#15301A"/>
    <path d="M26.3331 124.511H54.6975V56.1037H15.9109V115.798C15.9109 120.612 20.5751 124.511 26.3331 124.511Z" fill="#15301A"/>
    <path d="M114.481 116.689C114.481 120.778 110.555 124.086 105.711 124.086H22.6629C17.8192 124.069 13.8963 120.761 13.8963 116.689V59.1755C13.8963 55.0931 17.8192 56.2965 22.6629 56.2965H105.718C110.562 56.2965 114.488 55.0931 114.488 59.1755L114.481 116.689Z" fill="#286934"/>
    <path d="M22.6629 56.4794C17.8192 56.4794 13.8963 55.2793 13.8963 59.3484V116.689C13.8963 120.765 17.8192 124.063 22.6629 124.063H46.5426V56.4794H22.6629Z" fill="url(#paint0_linear_479_13308)" stroke="#19522B" stroke-width="0.5" stroke-miterlimit="10"/>
    <path d="M105.718 56.27H46.5426V124.069H105.718C110.562 124.069 114.488 120.761 114.488 116.672V59.1589C114.481 55.0665 110.555 56.27 105.718 56.27Z" fill="#286934"/>
    <path d="M105.718 56.27H46.5426V124.069H105.718C110.562 124.069 114.488 120.761 114.488 116.672V59.1589C114.481 55.0665 110.555 56.27 105.718 56.27Z" fill="url(#paint1_linear_479_13308)"/>
    <path fill-rule="evenodd" clip-rule="evenodd" d="M78.8663 77.0546C80.2733 77.1538 81.663 77.4228 83.0053 77.8558C76.855 78.3644 71.7487 83.0585 71.1702 89.1191C70.5053 95.8511 74.4947 101.948 81.5226 102.453C83.435 102.595 85.3553 102.321 87.152 101.651C88.9486 100.981 90.5791 99.93 91.9315 98.5705C89.3816 105.309 82.3537 109.91 74.5745 109.352C65.3191 108.687 59.7207 100.741 60.5685 91.885C61.4162 83.0286 69.611 76.3897 78.8663 77.0546Z" fill="white"/>
    <path fill-rule="evenodd" clip-rule="evenodd" d="M82.9854 77.859C76.8484 78.3743 71.7487 83.0651 71.1702 89.119C70.5053 95.851 74.4947 101.948 81.5226 102.453C83.4302 102.595 85.3459 102.323 87.1388 101.656C88.9317 100.989 90.5596 99.9436 91.9116 98.5904C89.5844 102.756 84.4415 104.757 79.3218 104.388C71.7321 103.843 67.3537 97.2839 68.0552 90.0232C68.7567 82.7626 75.4255 77.3537 82.9854 77.859Z" fill="url(#paint2_linear_479_13308)"/>
    <path fill-rule="evenodd" clip-rule="evenodd" d="M85.7513 106.343C82.4731 108.581 78.5331 109.642 74.5745 109.352C65.3191 108.687 59.7207 100.741 60.5685 91.885C61.0904 86.4628 64.365 81.8684 68.9528 79.2753C66.9724 80.6021 65.3082 82.3483 64.0781 84.3902C62.8481 86.432 62.0823 88.7195 61.8351 91.0904C60.9874 99.9435 66.5858 107.896 75.8411 108.557C79.2938 108.812 82.7446 108.038 85.758 106.333L85.7513 106.343ZM73.2247 77.5598L73.4608 77.5C73.2048 77.6263 72.9521 77.7626 72.7028 77.9023C72.8723 77.7926 73.0485 77.6696 73.2247 77.5598Z" fill="#1D5128"/>
    <path fill-rule="evenodd" clip-rule="evenodd" d="M88.9561 81.7454L90.4189 86.2799L95.1862 86.27L91.3231 89.0625L92.8058 93.5904L88.9561 90.7846L85.1064 93.5904L86.5891 89.0625L82.7261 86.27L87.4933 86.2799L88.9561 81.7454Z" fill="#1D5128"/>
    <path fill-rule="evenodd" clip-rule="evenodd" d="M89.5645 81.3564L91.0273 85.891L95.7945 85.881L91.9348 88.6736L93.4142 93.2048L89.5645 90.3957L85.7148 93.2048L87.1975 88.6736L83.3378 85.881L88.1017 85.891L89.5645 81.3564Z" fill="url(#paint3_linear_479_13308)"/>
    <path fill-rule="evenodd" clip-rule="evenodd" d="M89.2453 81.4894L90.7114 86.024L95.4754 86.0173L91.6157 88.8099L93.0951 93.3378L89.2453 90.5286L85.3956 93.3378L86.8783 88.8099L83.0186 86.0173L87.7826 86.024L89.2453 81.4894Z" fill="#FCFCFB"/>
    <path d="M108.561 44.8405H96.4295H82.8457H70.7846H57.131H45.1463H31.4561H19.5013H12.5432V51.5293V58.2314H15.9109H19.2852H32.869H44.9269H54.6975H58.5838H70.5718H84.2553H96.2134H109.904H116.496H118.245V54.6343V44.8405H108.561Z" fill="#15301A"/>
    <path d="M116.23 44.1489H10.5286V57.5366H116.23V44.1489Z" fill="white"/>
    <path d="M116.23 44.1489L118.245 44.8404H116.23V44.1489Z" fill="#15301A"/>
    <path d="M12.5432 58.2314L10.5253 57.5366H12.5432V58.2314Z" fill="#15301A"/>
    <path d="M30.9043 57.49L30.8544 57.5366H42.9122L29.4415 44.1489H17.4867L30.9043 57.49Z" fill="#18532C"/>
    <path d="M68.5572 57.5366L55.0997 44.1589L55.113 44.1489H43.1316L56.5824 57.5233L56.5658 57.5366H68.5572Z" fill="#18532C"/>
    <path d="M106.459 44.2287L106.546 44.1489H94.4149L107.889 57.5366H116.23V53.9428L106.459 44.2287Z" fill="#18532C"/>
    <path d="M10.5253 50.8345V57.5366H17.2706L10.5253 50.8345Z" fill="#18532C"/>
    <path d="M80.7813 44.1988L80.8311 44.1489H68.7699L82.2407 57.5366H94.1988L80.7813 44.1988Z" fill="#18532C"/>
</g>
</svg>
