<svg width="24" height="24" viewBox="0 0 24 24" fill="none" xmlns="http://www.w3.org/2000/svg">
<path d="M17.8951 0H6.10496C5.24607 0 4.54726 0.698719 4.54726 1.55766V22.4423C4.54726 23.3012 5.24602 24 6.10496 24H17.8951C18.754 24 19.4528 23.3012 19.4528 22.4423V1.55766C19.4528 0.698719 18.754 0 17.8951 0ZM12.0001 22.3891C11.3859 22.3891 10.8881 21.8913 10.8881 21.2772C10.8881 20.6631 11.3859 20.1652 12.0001 20.1652C12.6142 20.1652 13.112 20.6631 13.112 21.2772C13.112 21.8913 12.6141 22.3891 12.0001 22.3891ZM17.3448 17.7844C17.3448 18.0971 17.0913 18.3505 16.7787 18.3505H7.22143C6.90877 18.3505 6.65532 18.0971 6.65532 17.7844V2.4998C6.65532 2.18714 6.90877 1.93369 7.22143 1.93369H16.7787C17.0913 1.93369 17.3448 2.18714 17.3448 2.4998V17.7844Z" fill="#18532C"/>
</svg>
