<svg width="24" height="24" viewBox="0 0 24 24" fill="none" xmlns="http://www.w3.org/2000/svg">
<path d="M12 0C7.64859 0 4.1084 3.54014 4.1084 7.89159C4.1084 12.2431 7.64859 15.7832 12 15.7832C12.3953 15.7832 12.7838 15.7537 13.1637 15.6973C12.8648 16.1931 12.5406 16.6793 12.1908 17.1553C10.7768 19.0787 9.4393 20.1267 9.34541 20.1992C8.83021 20.5838 8.4966 21.1982 8.4966 21.8906C8.4966 23.0556 9.44099 24 10.606 24C11.0812 24 11.5197 23.8427 11.8724 23.5776C12.2308 23.3093 18.678 18.3602 19.798 9.10777C19.8596 8.71125 19.8918 8.30513 19.8918 7.89164C19.8917 3.54014 16.3515 0 12 0ZM15.6729 7.89164C15.6729 9.92011 14.0285 11.5645 12 11.5645C9.97157 11.5645 8.32715 9.92011 8.32715 7.89164C8.32715 5.86317 9.97157 4.21875 12 4.21875C14.0285 4.21875 15.6729 5.86317 15.6729 7.89164Z" fill="#D8EEDA"/>
<path d="M12 0V4.21875C14.0285 4.21875 15.6729 5.86317 15.6729 7.89164C15.6729 9.92011 14.0285 11.5645 12 11.5645V15.7833C12.3953 15.7833 12.7838 15.7537 13.1637 15.6973C12.8648 16.1932 12.5406 16.6794 12.1908 17.1553C12.127 17.2421 12.0634 17.3265 12 17.4097V23.4788C12.9833 22.7015 18.7449 17.807 19.7979 9.10777C19.8595 8.71125 19.8917 8.30513 19.8917 7.89164C19.8916 3.54014 16.3515 0 12 0V0Z" fill="white"/>
</svg>
