<svg width="25" height="24" viewBox="0 0 25 24" fill="none" xmlns="http://www.w3.org/2000/svg">
<path d="M3.38025 7.54688H2.58337C2.19506 7.54688 1.88025 7.86169 1.88025 8.25C1.88025 8.63831 2.19506 8.95312 2.58337 8.95312H3.38025V7.54688Z" fill="#18532C"/>
<path d="M3.38025 18.7969H2.58337C2.19506 18.7969 1.88025 19.1117 1.88025 19.5C1.88025 19.8883 2.19506 20.2031 2.58337 20.2031H3.38025V18.7969Z" fill="#18532C"/>
<path d="M3.38025 15.0469H2.58337C2.19506 15.0469 1.88025 15.3617 1.88025 15.75C1.88025 16.1383 2.19506 16.4531 2.58337 16.4531H3.38025V15.0469Z" fill="#18532C"/>
<path d="M3.38025 11.2969H2.58337C2.19506 11.2969 1.88025 11.6117 1.88025 12C1.88025 12.3883 2.19506 12.7031 2.58337 12.7031H3.38025V11.2969Z" fill="#18532C"/>
<path d="M3.38025 3.79688H2.58337C2.19506 3.79688 1.88025 4.11169 1.88025 4.5C1.88025 4.88831 2.19506 5.20312 2.58337 5.20312H3.38025V3.79688Z" fill="#18532C"/>
<path d="M7.88025 0H5.48962C4.32651 0 3.38025 0.946266 3.38025 2.10938V3.79688H5.58337C5.97169 3.79688 6.2865 4.11169 6.2865 4.5C6.2865 4.88831 5.97169 5.20312 5.58337 5.20312C4.94344 5.20312 4.06884 5.20312 3.38025 5.20312V7.54688H5.58337C5.97169 7.54688 6.2865 7.86169 6.2865 8.25C6.2865 8.63831 5.97169 8.95312 5.58337 8.95312C4.44159 8.95312 5.109 8.95312 3.38025 8.95312V11.2969H5.58337C5.97169 11.2969 6.2865 11.6117 6.2865 12C6.2865 12.3883 5.97169 12.7031 5.58337 12.7031C4.94344 12.7031 4.06884 12.7031 3.38025 12.7031V15.0469H5.58337C5.97169 15.0469 6.2865 15.3617 6.2865 15.75C6.2865 16.1383 5.97169 16.4531 5.58337 16.4531C4.44159 16.4531 5.109 16.4531 3.38025 16.4531V18.7969H5.58337C5.97169 18.7969 6.2865 19.1117 6.2865 19.5C6.2865 19.8883 5.97169 20.2031 5.58337 20.2031C4.94344 20.2031 4.06884 20.2031 3.38025 20.2031V21.8906C3.38025 23.0537 4.32651 24 5.48962 24H7.88025V0Z" fill="#18532C"/>
<path d="M13.7396 5.20312H16.9271V6.79688H13.7396V5.20312Z" fill="#18532C"/>
<path d="M20.6771 0H9.2865V24H20.6771C21.8402 24 22.7865 23.0537 22.7865 21.8906V2.10938C22.7865 0.946266 21.8402 0 20.6771 0ZM18.3334 7.5C18.3334 7.88831 18.0186 8.20312 17.6302 8.20312H13.0365C12.6482 8.20312 12.3334 7.88831 12.3334 7.5V4.5C12.3334 4.11169 12.6482 3.79688 13.0365 3.79688H17.6302C18.0186 3.79688 18.3334 4.11169 18.3334 4.5V7.5Z" fill="#18532C"/>
</svg>
