<svg width="24" height="24" viewBox="0 0 24 24" fill="none" xmlns="http://www.w3.org/2000/svg">
<path d="M3.04688 7.54688H2.25C1.86169 7.54688 1.54688 7.86169 1.54688 8.25C1.54688 8.63831 1.86169 8.95312 2.25 8.95312H3.04688V7.54688Z" fill="#ABABAB"/>
<path d="M3.04688 18.7969H2.25C1.86169 18.7969 1.54688 19.1117 1.54688 19.5C1.54688 19.8883 1.86169 20.2031 2.25 20.2031H3.04688V18.7969Z" fill="#ABABAB"/>
<path d="M3.04688 15.0469H2.25C1.86169 15.0469 1.54688 15.3617 1.54688 15.75C1.54688 16.1383 1.86169 16.4531 2.25 16.4531H3.04688V15.0469Z" fill="#ABABAB"/>
<path d="M3.04688 11.2969H2.25C1.86169 11.2969 1.54688 11.6117 1.54688 12C1.54688 12.3883 1.86169 12.7031 2.25 12.7031H3.04688V11.2969Z" fill="#ABABAB"/>
<path d="M3.04688 3.79688H2.25C1.86169 3.79688 1.54688 4.11169 1.54688 4.5C1.54688 4.88831 1.86169 5.20312 2.25 5.20312H3.04688V3.79688Z" fill="#ABABAB"/>
<path d="M7.54688 0H5.15625C3.99314 0 3.04688 0.946266 3.04688 2.10938V3.79688H5.25C5.63831 3.79688 5.95312 4.11169 5.95312 4.5C5.95312 4.88831 5.63831 5.20312 5.25 5.20312C4.61006 5.20312 3.73547 5.20312 3.04688 5.20312V7.54688H5.25C5.63831 7.54688 5.95312 7.86169 5.95312 8.25C5.95312 8.63831 5.63831 8.95312 5.25 8.95312C4.10822 8.95312 4.77562 8.95312 3.04688 8.95312V11.2969H5.25C5.63831 11.2969 5.95312 11.6117 5.95312 12C5.95312 12.3883 5.63831 12.7031 5.25 12.7031C4.61006 12.7031 3.73547 12.7031 3.04688 12.7031V15.0469H5.25C5.63831 15.0469 5.95312 15.3617 5.95312 15.75C5.95312 16.1383 5.63831 16.4531 5.25 16.4531C4.10822 16.4531 4.77562 16.4531 3.04688 16.4531V18.7969H5.25C5.63831 18.7969 5.95312 19.1117 5.95312 19.5C5.95312 19.8883 5.63831 20.2031 5.25 20.2031C4.61006 20.2031 3.73547 20.2031 3.04688 20.2031V21.8906C3.04688 23.0537 3.99314 24 5.15625 24H7.54688V0Z" fill="#ABABAB"/>
<path d="M13.4062 5.20312H16.5938V6.79688H13.4062V5.20312Z" fill="#ABABAB"/>
<path d="M20.3438 0H8.95312V24H20.3438C21.5069 24 22.4531 23.0537 22.4531 21.8906V2.10938C22.4531 0.946266 21.5069 0 20.3438 0ZM18 7.5C18 7.88831 17.6852 8.20312 17.2969 8.20312H12.7031C12.3148 8.20312 12 7.88831 12 7.5V4.5C12 4.11169 12.3148 3.79688 12.7031 3.79688H17.2969C17.6852 3.79688 18 4.11169 18 4.5V7.5Z" fill="#ABABAB"/>
</svg>
