<svg width="49" height="48" viewBox="0 0 49 48" fill="none" xmlns="http://www.w3.org/2000/svg">
<path d="M22.032 48C15.1545 48 14.7554 47.8668 14.0512 47.632C12.6564 47.1671 11.6137 46.1113 11.1904 44.7352C10.532 42.5947 11.7048 40.8868 12.1464 40.244C12.5349 39.6781 13.0986 38.9402 13.9516 37.8231C15.9229 35.242 19.592 30.4378 25.7403 21.6532C27.5263 19.1012 28.6782 16.8253 29.1664 14.8846L29.2902 13.9153C29.1682 10.8738 26.6557 8.43722 23.5848 8.43722C20.8616 8.43722 18.5053 10.3713 17.9819 13.036C17.5329 15.3222 15.3152 16.8113 13.0292 16.3625C10.743 15.9134 9.2537 13.6959 9.70276 11.4097C11.0015 4.7985 16.8397 0 23.5849 0C31.3858 0 37.7323 6.3465 37.7323 14.1474C37.7323 14.3262 37.721 14.5048 37.6983 14.6822L37.5065 16.1831C37.4886 16.3237 37.4635 16.4632 37.4315 16.6012C36.7271 19.6395 35.1193 22.967 32.6529 26.4911C28.4548 32.4894 25.3896 36.6674 23.2209 39.561C26.7309 39.5562 31.045 39.5235 35.1055 39.4725C35.1234 39.4722 35.1416 39.4721 35.1595 39.4721C37.4649 39.4721 39.3477 41.3259 39.3767 43.6378C39.406 45.9675 37.5411 47.8799 35.2114 47.9091C35.164 47.9097 30.4194 47.9689 25.6264 47.9907C24.2641 47.9969 23.0736 48 22.032 48ZM16.0446 39.4706H16.0449C16.0448 39.4706 16.0447 39.4706 16.0446 39.4706Z" fill="#D8EEDA"/>
<path d="M35.1595 39.472C35.1416 39.472 35.1233 39.4721 35.1054 39.4724C31.5256 39.5174 27.7493 39.5482 24.5 39.5581V47.9952C24.8623 47.9939 25.2365 47.9924 25.6264 47.9906C30.4194 47.9688 35.1641 47.9096 35.2114 47.909C37.5411 47.8797 39.406 45.9674 39.3767 43.6377C39.3477 41.3259 37.4648 39.472 35.1595 39.472Z" fill="white"/>
<path d="M32.6528 26.4912C35.1192 22.967 36.727 19.6396 37.4314 16.6012C37.4634 16.4632 37.4884 16.3237 37.5064 16.1832L37.6982 14.6822C37.7209 14.5049 37.7322 14.3263 37.7322 14.1475C37.7322 6.65405 31.8758 0.503768 24.4999 0.0305176V8.51199C27.1404 8.9393 29.1805 11.1826 29.2902 13.9156L29.1664 14.8848C28.6782 16.8255 27.5263 19.1014 25.7403 21.6534C25.3149 22.2612 24.9018 22.8493 24.4999 23.4195V37.8441C26.5467 35.0808 29.2211 31.3945 32.6528 26.4912Z" fill="white"/>
</svg>
