<svg width="49" height="48" viewBox="0 0 49 48" fill="none" xmlns="http://www.w3.org/2000/svg">
<path d="M38.5169 14.1094C38.5169 6.32944 32.1875 0 24.4076 0C17.6804 0 11.858 4.78566 10.5629 11.3792C10.1139 13.6656 11.6033 15.8828 13.8895 16.3319C16.1758 16.7808 18.3932 15.2916 18.8422 13.0054C19.3621 10.3585 21.7026 8.4375 24.4076 8.4375C27.535 8.4375 30.0794 10.982 30.0794 14.1094C30.0794 17.2368 27.535 19.7812 24.4076 19.7812C22.0776 19.7812 20.1888 21.67 20.1888 24C20.1888 26.33 22.0776 28.2188 24.4076 28.2188C27.535 28.2188 30.0794 30.7632 30.0794 33.8906C30.0794 37.018 27.535 39.5625 24.4076 39.5625C21.7026 39.5625 19.3621 37.6415 18.8423 34.9946C18.3932 32.7083 16.1759 31.2187 13.8896 31.6681C11.6033 32.1172 10.114 34.3344 10.563 36.6208C11.858 43.2143 17.6804 48 24.4076 48C32.1875 48 38.5169 41.6706 38.5169 33.8906C38.5169 30.0415 36.9671 26.5481 34.4593 24C36.9671 21.4519 38.5169 17.9585 38.5169 14.1094Z" fill="#D8EEDA"/>
<path d="M38.5169 14.1094C38.5169 6.36028 32.2376 0.0511895 24.5 0.0012207V8.43994C27.5848 8.48972 30.0794 11.013 30.0794 14.1095C30.0794 17.2059 27.5848 19.7291 24.5 19.7789V28.2211C27.5848 28.2709 30.0794 30.7942 30.0794 33.8906C30.0794 36.9871 27.5848 39.5104 24.5 39.5602V47.9989C32.2375 47.9489 38.5169 41.6397 38.5169 33.8906C38.5169 30.0415 36.9671 26.5481 34.4593 24C36.9671 21.4519 38.5169 17.9585 38.5169 14.1094V14.1094Z" fill="white"/>
</svg>
