<svg width="49" height="48" viewBox="0 0 49 48" fill="none" xmlns="http://www.w3.org/2000/svg">
<path d="M28.7188 48C26.3888 48 24.5 46.1112 24.5 43.7812V8.4375H20.2812C17.9513 8.4375 16.0625 6.54872 16.0625 4.21875C16.0625 1.88878 17.9513 0 20.2812 0H28.7188C31.0487 0 32.9375 1.88878 32.9375 4.21875V43.7812C32.9375 46.1112 31.0487 48 28.7188 48Z" fill="#D8EEDA"/>
<path d="M28.7188 0H24.5V43.7812C24.5 46.1112 26.3888 48 28.7188 48C31.0487 48 32.9375 46.1112 32.9375 43.7812V4.21875C32.9375 1.88878 31.0487 0 28.7188 0Z" fill="white"/>
</svg>
