<svg width="49" height="48" viewBox="0 0 49 48" fill="none" xmlns="http://www.w3.org/2000/svg">
<g clip-path="url(#clip0_1438_3643)">
<path d="M37.25 27.8871H35.75V6.61178C35.4953 3.55515 33.6653 1.06421 31.0879 0.265933C28.5336 -0.524942 25.811 0.472465 23.8043 2.93462C21.5672 5.67925 11.1849 24.3968 8.05606 30.0681C7.23068 31.5642 7.38059 33.432 8.49284 34.788C9.30462 35.7776 10.5377 36.3248 11.8178 36.3248H27.3125V43.7812C27.3125 46.1112 29.2013 48 31.5312 48C33.8612 48 35.75 46.1112 35.75 43.7812V36.3246H37.25C39.58 36.3246 41.4687 34.4358 41.4687 32.1059C41.4687 29.776 39.58 27.8871 37.25 27.8871ZM27.3125 27.8871H18.9179L27.3125 13.1565V27.8871Z" fill="#D8EEDA"/>
<path d="M37.25 27.8872H35.75V6.61184C35.4953 3.55521 33.6653 1.06427 31.0879 0.265993C28.8178 -0.43685 26.4153 0.273775 24.5 2.16865V18.0918L27.3125 13.1564V27.8872H24.5V36.3247H27.3125V43.7813C27.3125 46.1112 29.2013 48 31.5312 48C33.8612 48 35.75 46.1112 35.75 43.7813V36.3247H37.25C39.58 36.3247 41.4688 34.4359 41.4688 32.1059C41.4688 29.776 39.58 27.8872 37.25 27.8872Z" fill="white"/>
</g>
<defs>
<clipPath id="clip0_1438_3643">
<rect width="48" height="48" fill="white" transform="translate(0.5)"/>
</clipPath>
</defs>
</svg>
