<svg width="49" height="48" viewBox="0 0 49 48" fill="none" xmlns="http://www.w3.org/2000/svg">
<g clip-path="url(#clip0_1438_3625)">
<path d="M35.4742 20.7577C32.4404 17.5623 28.1755 15.7296 23.7733 15.7296C22.7218 15.7296 21.7841 15.772 20.9282 15.8541C20.9192 15.8549 20.9121 15.847 20.9135 15.8381L22.1377 8.44903C22.1388 8.44238 22.1445 8.4375 22.1513 8.4375H33.1119C35.5561 8.4375 37.5586 6.40181 37.4121 3.96187C37.2795 1.75153 35.445 0 33.2012 0H18.5625C16.4986 0 14.7378 1.49316 14.4004 3.52922L11.5005 21.0327C11.2385 22.6137 11.8794 24.2147 13.1791 25.1521C14.4765 26.0877 16.1758 26.2171 17.5915 25.4742C17.6197 25.4603 17.7273 25.4072 17.8995 25.3298C19.4598 24.6275 20.7115 24.1672 23.7733 24.1672C25.9034 24.1672 27.8858 25.0195 29.3553 26.5673C30.8236 28.1138 31.5712 30.1427 31.4602 32.2802C31.3604 34.2043 30.528 36.0162 29.1165 37.3819C27.7043 38.7483 25.8638 39.5222 23.9341 39.561C21.0009 39.6194 18.3795 38.0243 17.0322 35.5908C16.1792 34.0503 14.4825 33.1766 12.7385 33.42C9.82786 33.8262 8.19605 37.0188 9.60539 39.5978C12.3672 44.6514 17.7339 48.0006 23.7745 48.0001C23.8838 48.0001 23.9944 47.999 24.1041 47.9968C32.5182 47.8272 39.4505 41.1158 39.8864 32.7175C40.1185 28.2462 38.5515 23.9988 35.4742 20.7577Z" fill="#D8EEDA"/>
<path d="M33.112 8.4375C35.5562 8.4375 37.5587 6.40181 37.4122 3.96187C37.2795 1.75153 35.4449 0 33.2012 0H24.5V8.4375H33.112Z" fill="white"/>
<path d="M35.4742 20.7577C32.6076 17.7384 28.6421 15.9368 24.5 15.7472V24.2019C26.3514 24.3732 28.0544 25.197 29.3553 26.5672C30.8236 28.1137 31.5712 30.1425 31.4602 32.28C31.3603 34.2041 30.528 36.016 29.1164 37.3817C27.8431 38.6139 26.2212 39.3621 24.5 39.5261V47.9838C32.7346 47.6155 39.4573 40.9836 39.8863 32.7173C40.1185 28.2462 38.5514 23.9988 35.4742 20.7577Z" fill="white"/>
</g>
<defs>
<clipPath id="clip0_1438_3625">
<rect width="48" height="48" fill="white" transform="translate(0.5)"/>
</clipPath>
</defs>
</svg>
