<svg width="49" height="48" viewBox="0 0 49 48" fill="none" xmlns="http://www.w3.org/2000/svg">
<g clip-path="url(#clip0_1438_3607)">
<path d="M24.5 48C33.2029 48 40.2833 40.9197 40.2833 32.2168C40.2833 23.5138 33.2029 16.4335 24.5 16.4335C23.7094 16.4335 22.9324 16.4927 22.1727 16.6055C22.7704 15.6138 23.4188 14.6413 24.1185 13.6895C26.9465 9.84262 29.6215 7.74656 29.8093 7.60153C30.8397 6.83231 31.5069 5.60353 31.5069 4.21875C31.5069 1.88878 29.6181 0 27.2881 0C26.3377 0 25.4608 0.314531 24.7554 0.844875C24.0386 1.38141 11.1441 11.2795 8.90405 29.7845C8.78087 30.5775 8.71655 31.3897 8.71655 32.2167C8.71674 40.9197 15.7971 48 24.5 48ZM17.2208 31.2427C17.2321 31.1756 17.2416 31.1078 17.2498 31.0396C17.8149 27.5469 20.8502 24.8709 24.5 24.8709C28.5505 24.8709 31.8458 28.1662 31.8458 32.2167C31.8458 36.2672 28.5505 39.5625 24.5 39.5625C20.4496 39.5625 17.1542 36.2673 17.1542 32.2168C17.1542 31.8863 17.1783 31.5616 17.2208 31.2427Z" fill="#D8EEDA"/>
<path d="M29.8093 7.60153C30.8397 6.83231 31.507 5.60353 31.507 4.21875C31.507 1.88878 29.6182 0 27.2882 0C26.3378 0 25.4608 0.314531 24.7555 0.844875C24.7126 0.876938 24.6251 0.9435 24.5 1.04241V13.1807C27.1827 9.65869 29.63 7.73991 29.8093 7.60153Z" fill="white"/>
<path d="M24.5 16.4335V24.871C28.5505 24.871 31.8458 28.1663 31.8458 32.2168C31.8458 36.2672 28.5505 39.5625 24.5 39.5625V48C33.2029 48 40.2833 40.9198 40.2833 32.2168C40.2833 23.5138 33.2029 16.4335 24.5 16.4335Z" fill="white"/>
</g>
<defs>
<clipPath id="clip0_1438_3607">
<rect width="48" height="48" fill="white" transform="translate(0.5)"/>
</clipPath>
</defs>
</svg>
