<svg width="54" height="54" viewBox="0 0 54 54" fill="none" xmlns="http://www.w3.org/2000/svg">
<path d="M18.6037 38.7542C13.4278 33.5783 13.4282 25.1567 18.6041 19.9808C21.0273 17.5576 24.2849 16.1799 27.6836 16.1002C27.6836 16.1002 27.9855 15.3147 28.3569 14.3447C28.729 13.3755 29.6321 13.332 30.375 14.2477L34.7233 19.6137C35.4661 20.5297 35.1243 21.4224 33.9597 21.6076L27.1377 22.6911C25.9727 22.8757 25.2873 22.3521 25.6064 21.5205L26.1837 20.0151C24.3308 20.3736 22.6046 21.2644 21.2462 22.6229C17.5266 26.3425 17.527 32.3931 21.2459 36.112C24.9653 39.8314 31.0165 39.8316 34.7357 36.1124C35.9073 34.9408 36.7564 33.4828 37.1899 31.8956C37.4621 30.9002 38.4892 30.3139 39.4846 30.5861C40.4805 30.8582 41.0661 31.8853 40.7939 32.8814C40.1893 35.0932 39.0083 37.1242 37.378 38.7545C32.202 43.9305 23.7799 43.9304 18.6037 38.7542Z" fill="white"/>
</svg>
