<svg width="24" height="24" viewBox="0 0 24 24" fill="none" xmlns="http://www.w3.org/2000/svg">
<path d="M8.74449 24C8.46094 24 8.17294 23.9425 7.89671 23.8211C6.8303 23.3523 6.34575 22.1077 6.8146 21.0413L14.2096 4.21866H6.55904C5.3941 4.21866 4.44971 3.27427 4.44971 2.10933C4.44971 0.944391 5.3941 0 6.55904 0H17.441C18.1535 0 18.8178 0.359719 19.2074 0.956344C19.5968 1.55297 19.6588 2.30588 19.372 2.95819L10.6766 22.739C10.3292 23.5292 9.55575 24 8.74449 24Z" fill="#D8EEDA"/>
<path d="M19.2073 0.956344C18.8178 0.359719 18.1535 0 17.441 0H12V4.21866H14.2096L12 9.2452V19.7283L19.372 2.95819C19.6587 2.30588 19.5968 1.55297 19.2073 0.956344Z" fill="white"/>
</svg>
