<svg width="25" height="24" viewBox="0 0 25 24" fill="none" xmlns="http://www.w3.org/2000/svg">
<g clip-path="url(#clip0_1438_2521)">
<path d="M6.50362 11.2174H1.44937C1.01714 11.2174 0.666748 11.5678 0.666748 12V22.1085C0.666748 22.5407 1.01714 22.8911 1.44937 22.8911H6.50362C6.93581 22.8911 7.28625 22.5407 7.28625 22.1085V12C7.2862 11.5678 6.93581 11.2174 6.50362 11.2174Z" fill="#ABABAB"/>
<path d="M15.1938 1.10901H10.1396C9.70737 1.10901 9.35693 1.4594 9.35693 1.89163V22.1085C9.35693 22.5407 9.70732 22.8911 10.1396 22.8911H15.1938C15.626 22.8911 15.9764 22.5408 15.9764 22.1085V1.89159C15.9764 1.4594 15.626 1.10901 15.1938 1.10901Z" fill="#ABABAB"/>
<path d="M23.8842 6.16309H18.83C18.3978 6.16309 18.0474 6.51348 18.0474 6.94571V22.1084C18.0474 22.5406 18.3978 22.891 18.83 22.891H23.8842C24.3164 22.891 24.6669 22.5406 24.6669 22.1084V6.94571C24.6668 6.51352 24.3164 6.16309 23.8842 6.16309Z" fill="#ABABAB"/>
</g>
<defs>
<clipPath id="clip0_1438_2521">
<rect width="24" height="24" fill="white" transform="translate(0.666748)"/>
</clipPath>
</defs>
</svg>
