<svg width="25" height="24" viewBox="0 0 25 24" fill="none" xmlns="http://www.w3.org/2000/svg">
<g clip-path="url(#clip0_1438_2694)">
<path d="M6.17013 11.2174H1.11588C0.683643 11.2174 0.333252 11.5678 0.333252 12V22.1085C0.333252 22.5407 0.683643 22.8911 1.11588 22.8911H6.17013C6.60231 22.8911 6.95275 22.5407 6.95275 22.1085V12C6.95271 11.5678 6.60231 11.2174 6.17013 11.2174Z" fill="#18532C"/>
<path d="M14.8603 1.10901H9.80606C9.37387 1.10901 9.02344 1.4594 9.02344 1.89163V22.1085C9.02344 22.5407 9.37383 22.8911 9.80606 22.8911H14.8603C15.2925 22.8911 15.6429 22.5408 15.6429 22.1085V1.89159C15.6429 1.4594 15.2925 1.10901 14.8603 1.10901Z" fill="#18532C"/>
<path d="M23.5507 6.16309H18.4965C18.0643 6.16309 17.7139 6.51348 17.7139 6.94571V22.1084C17.7139 22.5406 18.0643 22.891 18.4965 22.891H23.5507C23.9829 22.891 24.3334 22.5406 24.3334 22.1084V6.94571C24.3333 6.51352 23.9829 6.16309 23.5507 6.16309Z" fill="#18532C"/>
</g>
<defs>
<clipPath id="clip0_1438_2694">
<rect width="24" height="24" fill="white" transform="translate(0.333252)"/>
</clipPath>
</defs>
</svg>
