<svg width="20" height="20" viewBox="0 0 20 20" fill="none" xmlns="http://www.w3.org/2000/svg">
<g clip-path="url(#clip0_746_6662)">
<circle cx="10" cy="10" r="10" fill="white"/>
<path d="M10 0C4.48582 0 0 4.48605 0 10C0 15.5139 4.48582 20 10 20C15.5142 20 20 15.5139 20 10C20 4.48605 15.5142 0 10 0ZM14.6968 8.88676L10.0527 13.5309C9.54316 14.0404 8.71773 14.0404 8.2082 13.5309L5.52055 10.8432C5.01102 10.3339 5.01102 9.50813 5.52055 8.99879C6.03008 8.48926 6.85547 8.48926 7.365 8.99879L9.13043 10.764L12.8524 7.04223C13.3619 6.5327 14.1873 6.5327 14.6968 7.04223C15.2064 7.5516 15.2064 8.37742 14.6968 8.88676Z" fill="#347406"/>
</g>
<defs>
<clipPath id="clip0_746_6662">
<rect width="20" height="20" fill="white"/>
</clipPath>
</defs>
</svg>
