<svg width="24" height="24" viewBox="0 0 24 24" fill="none" xmlns="http://www.w3.org/2000/svg">
<path d="M0.46875 23.5829L2.1 17.6344C1.09219 15.8954 0.5625 13.9172 0.5625 11.8969C0.567188 5.56411 5.71875 0.417236 12.0469 0.417236C15.1172 0.417236 18.0047 1.61255 20.1703 3.78286C22.3406 5.95317 23.5359 8.83599 23.5313 11.9063C23.5266 18.2344 18.375 23.386 12.0469 23.386H12.0422C10.1203 23.386 8.23125 22.9032 6.55313 21.9891L0.46875 23.5829Z" fill="#18532C"/>
<path d="M0.0515747 24L1.73907 17.8359C0.69845 16.0359 0.1547 13.9875 0.1547 11.8922C0.1547 5.33438 5.49376 0 12.0516 0C15.2344 0 18.2203 1.24219 20.4656 3.4875C22.7109 5.7375 23.9484 8.72344 23.9484 11.9016C23.9438 18.4594 18.6094 23.7938 12.0516 23.7938H12.0469C10.0547 23.7938 8.10001 23.2922 6.36095 22.3453L0.0515747 24ZM6.65157 20.1937L7.01251 20.4094C8.53126 21.3094 10.2703 21.7875 12.0469 21.7875H12.0516C17.5031 21.7875 21.9375 17.3531 21.9375 11.9016C21.9375 9.2625 20.9109 6.77812 19.0453 4.90781C17.1797 3.0375 14.6953 2.01094 12.0563 2.01094C6.60001 2.01094 2.16564 6.44531 2.16564 11.8969C2.16564 13.7625 2.68595 15.5813 3.67501 17.1562L3.90939 17.5312L2.91095 21.1781L6.65157 20.1937Z" fill="#E8E8E8"/>
<path fill-rule="evenodd" clip-rule="evenodd" d="M9.075 6.9187C8.85 6.42183 8.61563 6.41245 8.40469 6.40308C8.23125 6.3937 8.03438 6.39839 7.83281 6.39839C7.63594 6.39839 7.3125 6.47339 7.04062 6.7687C6.76875 7.06401 6 7.78589 6 9.24839C6 10.7109 7.06406 12.1265 7.21406 12.3234C7.36406 12.5203 9.27188 15.6187 12.2906 16.8093C14.8031 17.7984 15.3141 17.6015 15.8578 17.5546C16.4016 17.5078 17.6156 16.8375 17.8641 16.1437C18.1125 15.45 18.1125 14.8546 18.0375 14.7328C17.9625 14.6109 17.7656 14.5359 17.4656 14.3859C17.1703 14.2359 15.7078 13.5187 15.4359 13.4203C15.1641 13.3218 14.9672 13.2703 14.7656 13.5703C14.5688 13.8656 13.9969 14.5359 13.8234 14.7328C13.65 14.9296 13.4766 14.9578 13.1813 14.8078C12.8859 14.6578 11.925 14.3437 10.7906 13.3312C9.90469 12.5437 9.30937 11.5687 9.13594 11.2734C8.9625 10.9781 9.11719 10.814 9.26719 10.6687C9.39844 10.5375 9.5625 10.3218 9.7125 10.1484C9.8625 9.97495 9.90937 9.85308 10.0078 9.65151C10.1062 9.45464 10.0594 9.2812 9.98438 9.1312C9.91875 8.97651 9.34219 7.50933 9.075 6.9187Z" fill="white"/>
</svg>
